HIERARCHY
ROOT Hips
{
	OFFSET 0.00000 0.00000 0.00000
	CHANNELS 6 Xposition Yposition Zposition Zrotation Yrotation Xrotation 
	JOINT LHipJoint
	{
		OFFSET 0 0 0
		CHANNELS 3 Zrotation Yrotation Xrotation
		JOINT LeftUpLeg
		{
			OFFSET 1.57358 -1.76629 0.73362
			CHANNELS 3 Zrotation Yrotation Xrotation
			JOINT LeftLeg
			{
				OFFSET 2.40600 -6.61045 0.00000
				CHANNELS 3 Zrotation Yrotation Xrotation
				JOINT LeftFoot
				{
					OFFSET 2.66168 -7.31291 0.00000
					CHANNELS 3 Zrotation Yrotation Xrotation
					JOINT LeftToeBase
					{
						OFFSET 0.20870 -0.57341 2.12506
						CHANNELS 3 Zrotation Yrotation Xrotation
						End Site
						{
							OFFSET 0.00000 -0.00000 1.10557
						}
					}
				}
			}
		}
	}
	JOINT RHipJoint
	{
		OFFSET 0 0 0
		CHANNELS 3 Zrotation Yrotation Xrotation
		JOINT RightUpLeg
		{
			OFFSET -1.49299 -1.76629 0.73362
			CHANNELS 3 Zrotation Yrotation Xrotation
			JOINT RightLeg
			{
				OFFSET -2.43663 -6.69460 0.00000
				CHANNELS 3 Zrotation Yrotation Xrotation
				JOINT RightFoot
				{
					OFFSET -2.62959 -7.22474 0.00000
					CHANNELS 3 Zrotation Yrotation Xrotation
					JOINT RightToeBase
					{
						OFFSET -0.25784 -0.70841 2.21862
						CHANNELS 3 Zrotation Yrotation Xrotation
						End Site
						{
							OFFSET -0.00000 -0.00000 1.16452
						}
					}
				}
			}
		}
	}
	JOINT LowerBack
	{
		OFFSET 0 0 0
		CHANNELS 3 Zrotation Yrotation Xrotation
		JOINT Spine
		{
			OFFSET -0.00034 2.12399 -0.25450
			CHANNELS 3 Zrotation Yrotation Xrotation
			JOINT Spine1
			{
				OFFSET 0.05594 2.14379 -0.03318
				CHANNELS 3 Zrotation Yrotation Xrotation
				JOINT Neck
				{
					OFFSET 0 0 0
					CHANNELS 3 Zrotation Yrotation Xrotation
					JOINT Neck1
					{
						OFFSET -0.09835 1.62725 0.24211
						CHANNELS 3 Zrotation Yrotation Xrotation
						JOINT Head
						{
							OFFSET 0.10849 1.66041 -0.22648
							CHANNELS 3 Zrotation Yrotation Xrotation
							End Site
							{
								OFFSET 0.04385 1.68267 -0.10541
							}
						}
					}
				}
				JOINT LeftShoulder
				{
					OFFSET 0 0 0
					CHANNELS 3 Zrotation Yrotation Xrotation
					JOINT LeftArm
					{
						OFFSET 3.29108 0.79398 -0.68179
						CHANNELS 3 Zrotation Yrotation Xrotation
						JOINT LeftForeArm
						{
							OFFSET 5.15310 -0.00000 -0.00000
							CHANNELS 3 Zrotation Yrotation Xrotation
							JOINT LeftHand
							{
								OFFSET 3.75138 -0.00000 -0.00000
								CHANNELS 3 Zrotation Yrotation Xrotation
								JOINT LeftFingerBase
								{
									OFFSET 0 0 0
									CHANNELS 3 Zrotation Yrotation Xrotation
									JOINT LeftHandIndex1
									{
										OFFSET 0.52917 -0.00000 0.00000
										CHANNELS 3 Zrotation Yrotation Xrotation
										End Site
										{
											OFFSET 0.42663 -0.00000 0.00000
										}
									}
								}
								JOINT LThumb
								{
									OFFSET 0 0 0
									CHANNELS 3 Zrotation Yrotation Xrotation
									End Site
									{
										OFFSET 0.43315 -0.00000 0.43315
									}
								}
							}
						}
					}
				}
				JOINT RightShoulder
				{
					OFFSET 0 0 0
					CHANNELS 3 Zrotation Yrotation Xrotation
					JOINT RightArm
					{
						OFFSET -3.07414 1.06285 -0.44338
						CHANNELS 3 Zrotation Yrotation Xrotation
						JOINT RightForeArm
						{
							OFFSET -5.29613 -0.00000 0.00000
							CHANNELS 3 Zrotation Yrotation Xrotation
							JOINT RightHand
							{
								OFFSET -3.76144 -0.00000 -0.00000
								CHANNELS 3 Zrotation Yrotation Xrotation
								JOINT RightFingerBase
								{
									OFFSET 0 0 0
									CHANNELS 3 Zrotation Yrotation Xrotation
									JOINT RightHandIndex1
									{
										OFFSET -0.74732 -0.00000 0.00000
										CHANNELS 3 Zrotation Yrotation Xrotation
										End Site
										{
											OFFSET -0.60251 -0.00000 0.00000
										}
									}
								}
								JOINT RThumb
								{
									OFFSET 0 0 0
									CHANNELS 3 Zrotation Yrotation Xrotation
									End Site
									{
										OFFSET -0.61171 -0.00000 0.61171
									}
								}
							}
						}
					}
				}
			}
		}
	}
}
MOTION
Frames: 14
Frame Time: .0083333
1.0564 17.3297 3.0080 21.7213 -43.6516 -8.2366 0.0000 0.0000 0.0000 -29.1779 -2.6911 8.9030 6.5399 14.9319 47.1120 2.0933 -3.9304 28.9608 0.0313 -1.1426 -3.1413 0.0000 0.0000 0.0000 20.8831 6.0079 -34.0498 -2.0481 -8.9655 25.6875 -0.0424 -2.5952 3.8272 -2.0310 -8.9304 25.5778 -8.3750 -0.2198 11.0606 -0.8845 -1.4833 -0.6631 4.0287 -0.4494 -6.7536 -12.7402 -4.9577 -18.4915 6.7381 -4.6849 16.6200 3.7662 -2.3349 8.7078 -0.0000 0.0000 0.0000 -87.3478 16.3539 33.1649 125.2160 -54.7517 -89.9605 -0.0000 0.0000 -27.1414 18.2299 6.0629 1.9924 -7.1250 0.0000 -0.0000 -7.1436 36.2812 1.5411 -0.0000 0.0000 0.0000 87.8626 -27.2943 36.4563 -123.2966 55.3655 -88.3870 0.0000 -0.0000 -13.0415 -14.4837 24.9143 -6.2104 7.1250 -0.0000 -0.0000 9.1735 -4.6297 8.5152
0.8209 17.2334 3.3712 21.5812 -44.3688 -8.7701 0.0000 0.0000 0.0000 -28.5876 -2.0167 7.6311 7.4091 15.6670 50.4053 2.0450 -2.7146 28.1036 0.0408 -1.3033 -3.5837 0.0000 0.0000 0.0000 21.8892 4.8201 -33.6427 -2.4176 -9.6865 27.9675 0.0012 -2.0110 1.3057 -2.1037 -9.0788 26.0422 -8.0250 -0.0618 11.3827 -0.7677 -1.2446 -0.5709 3.9234 -0.3404 -6.8711 -12.7653 -4.9302 -18.3594 6.4919 -4.6135 16.7684 3.6968 -2.3343 8.7232 0.0000 0.0000 0.0000 -87.4675 17.0516 33.6708 124.7171 -54.9160 -89.5527 -0.0000 0.0000 -29.2287 21.8057 5.3444 2.1341 -7.1250 0.0000 -0.0000 -4.0853 35.7087 0.9347 0.0000 0.0000 0.0000 87.6775 -26.6827 36.5905 -123.0361 55.4451 -88.1725 0.0000 -0.0000 -13.2890 -15.0522 24.7566 -6.4254 7.1250 -0.0000 -0.0000 8.8164 -4.7101 8.1619
0.5829 17.1356 3.7310 21.6002 -44.9546 -9.3664 0.0000 0.0000 0.0000 -28.0304 -1.4757 6.2282 8.3331 16.3588 53.7536 1.9692 -1.2415 27.0096 0.0140 -0.7643 -2.1004 0.0000 0.0000 0.0000 22.4099 4.1112 -32.9231 -2.8413 -10.4336 30.3927 0.0169 -2.5301 -2.0377 -2.1672 -9.2060 26.4417 -7.7433 0.0059 11.6235 -0.8004 -1.1338 -0.4012 3.7149 -0.3031 -6.8437 -12.3521 -4.7796 -18.6316 6.0654 -4.4046 17.0706 3.5106 -2.2556 8.8327 -0.0000 -0.0000 0.0000 -87.4376 17.7281 33.7407 124.2888 -55.0543 -89.2019 -0.0000 0.0000 -31.0051 23.6029 5.2619 2.2947 -7.1250 0.0000 -0.0000 -2.5797 35.7092 0.5895 -0.0000 -0.0000 0.0000 87.4686 -25.9439 36.8700 -122.8306 55.5072 -88.0032 0.0000 -0.0000 -13.3847 -15.2125 24.5855 -6.4548 7.1250 -0.0000 -0.0000 8.7075 -4.8602 8.0338
0.3386 17.0427 4.0835 21.4467 -45.5081 -9.7772 0.0000 0.0000 0.0000 -27.2900 -0.9875 4.6642 9.3089 17.0024 57.1524 1.7760 -0.6714 25.4605 0.0253 -1.0272 -2.8237 0.0000 0.0000 0.0000 22.7481 4.2155 -32.0264 -3.2943 -11.1569 32.8110 -0.0450 -0.0586 -4.0279 -2.9337 -10.5869 30.8990 -7.4133 0.1202 11.9123 -0.7680 -0.9537 -0.2570 3.5368 -0.2289 -6.8771 -12.0956 -4.6794 -18.9195 5.7883 -4.2512 17.3852 3.3943 -2.1982 8.9641 -0.0000 -0.0000 0.0000 -87.4101 17.9966 31.3014 122.4992 -55.6063 -87.7300 -0.0000 0.0000 -24.2299 12.3588 9.1598 1.9977 -7.1250 0.0000 -0.0000 -12.6037 39.0527 1.8819 -0.0000 -0.0000 0.0000 87.5760 -24.9732 36.7627 -122.2575 55.6778 -87.5304 0.0000 -0.0000 -13.4275 -15.0617 24.4437 -6.3540 7.1250 -0.0000 -0.0000 8.7913 -5.0237 8.0855
0.0906 16.9544 4.4169 20.7783 -45.8697 -9.7965 0.0000 0.0000 0.0000 -26.0816 -0.8140 3.0035 10.3381 17.5956 60.6124 1.5508 -0.6983 23.8121 0.0589 -1.5659 -4.3074 0.0000 0.0000 0.0000 23.2224 5.0207 -30.9300 -3.7419 -11.8088 35.0590 -0.1291 -2.4250 -8.1336 -2.3792 -9.6148 27.7382 -7.0353 0.1769 12.4562 -0.4699 -0.8475 -0.2267 3.6307 -0.1742 -7.1637 -11.9093 -4.6834 -18.9999 5.3028 -4.2059 17.7306 3.2027 -2.2234 9.0792 0.0000 0.0000 0.0000 -87.7627 18.7330 30.7150 121.5714 -55.8765 -86.9631 -0.0000 0.0000 -23.8739 10.4700 8.9813 1.6525 -7.1250 0.0000 -0.0000 -14.1597 38.7346 2.2385 0.0000 0.0000 0.0000 87.5693 -23.9258 36.6680 -121.3741 55.9325 -86.7997 0.0000 -0.0000 -13.6500 -15.4255 24.3826 -6.4985 7.1250 -0.0000 -0.0000 8.5640 -5.0352 7.8696
-0.1525 16.8633 4.7385 19.8001 -46.0119 -9.5637 0.0000 0.0000 0.0000 -24.5878 -0.8657 1.2330 11.4131 18.1314 64.1159 1.3086 -0.9935 22.0017 0.1032 -2.0717 -5.7037 0.0000 0.0000 0.0000 23.8707 5.9248 -29.5416 -4.1467 -12.3531 36.9927 -0.2568 -3.9977 -11.8974 -2.3671 -9.5922 27.6661 -6.4357 0.1737 13.0480 -0.1549 -0.7828 -0.1899 3.6255 -0.1481 -7.4670 -11.7659 -4.6953 -18.7274 4.8137 -4.1977 17.8251 3.0125 -2.2695 9.0501 0.0000 -0.0000 0.0000 -88.0761 19.4023 30.4264 120.7997 -56.0931 -86.3234 -0.0000 0.0000 -25.0942 10.2729 9.1305 1.6474 -7.1250 0.0000 -0.0000 -14.3592 38.8666 2.2238 0.0000 -0.0000 0.0000 87.5241 -22.8339 36.5908 -120.4308 56.1941 -86.0171 0.0000 -0.0000 -13.9417 -15.7640 24.3484 -6.6385 7.1250 -0.0000 -0.0000 8.3539 -5.0224 7.6742
-0.3908 16.7736 5.0526 18.4303 -45.8940 -9.0296 0.0000 0.0000 0.0000 -22.7199 -1.0548 -0.7572 12.5234 18.6032 67.6383 1.0611 -1.8609 20.2137 0.1686 -2.6452 -7.2923 0.0000 0.0000 0.0000 24.9183 6.2012 -28.0295 -4.4785 -12.7713 38.5183 -0.4407 -4.4918 -14.9974 -2.6423 -10.0922 29.2758 -5.5192 0.0457 13.6871 0.2062 -0.8246 -0.2284 3.5124 -0.1814 -7.8695 -11.9135 -4.6981 -18.9009 4.8967 -4.1611 18.0869 3.0710 -2.2576 9.1741 -0.0000 0.0000 0.0000 -88.3711 20.2233 30.3769 120.1005 -56.2831 -85.7425 -0.0000 0.0000 -26.8200 12.1816 9.2337 1.9839 -7.1250 0.0000 -0.0000 -12.7697 39.1129 1.8884 -0.0000 0.0000 0.0000 87.2946 -21.8964 36.7156 -119.5188 56.4368 -85.2583 0.0000 -0.0000 -14.0564 -16.2671 24.1264 -6.8017 7.1250 -0.0000 -0.0000 8.0295 -5.1760 7.3465
-0.6241 16.6878 5.3568 16.9395 -45.5700 -8.5707 0.0000 0.0000 0.0000 -20.6809 -1.3870 -2.8108 13.6378 19.0005 71.0951 0.8487 -3.1247 18.8020 0.2131 -2.9718 -8.2002 0.0000 0.0000 0.0000 26.1438 5.6896 -26.4479 -4.7421 -13.0873 39.6962 -0.6406 -5.0323 -17.7831 -2.5660 -9.9569 28.8373 -4.6919 -0.1058 14.6369 0.6813 -0.9035 -0.2724 3.5888 -0.2240 -8.4495 -12.3294 -4.6628 -18.4753 4.9479 -4.0656 18.0835 3.1734 -2.2431 9.1007 -0.0000 -0.0000 0.0000 -88.8879 21.0892 30.2964 119.2353 -56.5103 -85.0219 -0.0000 0.0000 -27.6682 13.8291 9.2361 2.2626 -7.1250 0.0000 -0.0000 -11.3700 39.2412 1.6382 -0.0000 -0.0000 0.0000 86.6993 -21.1067 37.1074 -119.1646 56.5285 -84.9630 0.0000 -0.0000 -14.4457 -17.0109 23.3428 -6.9118 7.1250 -0.0000 -0.0000 7.5161 -5.8658 6.7685
-0.8811 16.6189 5.7025 15.1934 -45.9863 -6.8188 0.0000 0.0000 0.0000 -18.5865 -1.7423 -6.0396 14.6894 19.3100 74.2994 0.6811 -3.5714 17.2912 0.1800 -2.7324 -7.5345 0.0000 0.0000 0.0000 27.5302 5.8388 -25.6827 -4.9194 -13.2924 40.4732 -0.7784 -5.7638 -19.7344 -2.0646 -8.9994 25.7936 -3.4184 -0.1763 13.7628 1.0692 -0.7132 -0.3359 3.2256 -0.1855 -8.0475 -12.3080 -4.7244 -18.3086 4.9221 -4.1720 17.9597 3.1466 -2.2933 9.0371 0.0000 0.0000 0.0000 -89.2098 21.7120 29.9157 118.2417 -56.7605 -84.1921 -0.0000 0.0000 -28.2600 13.8637 9.3320 2.2918 -7.1250 0.0000 -0.0000 -11.3597 39.3404 1.6085 0.0000 0.0000 0.0000 86.3147 -19.9983 37.6334 -119.1252 56.5386 -84.9300 0.0000 -0.0000 -14.8752 -17.3406 22.6101 -6.8453 7.1250 -0.0000 -0.0000 7.2612 -6.5662 6.4364
-1.1163 16.5518 5.9999 13.7759 -45.9044 -5.8794 0.0000 0.0000 0.0000 -16.7111 -2.3555 -8.7644 15.6606 19.5424 77.2188 0.5638 -3.4687 15.8719 0.0587 -1.5630 -4.2993 0.0000 0.0000 0.0000 28.6223 5.5522 -24.4494 -5.0562 -13.4469 41.0651 -0.8843 -6.5931 -21.3354 -1.6557 -8.1087 23.0446 -2.5892 -0.3293 13.9282 1.3665 -0.7627 -0.2186 3.0848 -0.2399 -8.0156 -12.1859 -4.8021 -18.6955 4.9670 -4.2686 17.9760 3.1253 -2.3195 9.1180 0.0000 0.0000 0.0000 -89.4852 21.9815 29.4097 117.2401 -57.0016 -83.3532 -0.0000 0.0000 -28.5004 13.7818 9.7695 2.3834 -7.1250 0.0000 -0.0000 -11.5190 39.7742 1.5068 0.0000 0.0000 0.0000 87.7212 -17.0438 36.5433 -116.6122 57.1471 -82.8261 0.0000 -0.0000 -13.5875 -15.9225 22.7253 -6.2891 7.1250 -0.0000 -0.0000 8.1560 -6.6429 7.2332
-1.3610 16.5257 6.2960 12.7960 -45.9759 -5.1470 0.0000 0.0000 0.0000 -15.2300 -2.6613 -11.5237 16.4691 19.6984 79.6263 0.4460 -3.6837 14.5075 0.1106 -2.1441 -5.9042 0.0000 0.0000 0.0000 29.2999 5.3335 -23.2096 -5.1872 -13.5915 41.6252 -1.0729 -6.5542 -22.9731 -1.6309 -8.0508 22.8686 -2.0261 -0.3075 13.9438 1.6296 -0.6221 -0.1645 3.0175 -0.1908 -7.9786 -12.2603 -4.9049 -18.8498 5.0171 -4.3749 17.8670 3.1371 -2.3636 9.1206 -0.0000 0.0000 0.0000 -89.8025 22.1469 29.1441 116.2137 -57.2373 -82.4912 -0.0000 0.0000 -28.2720 14.2087 10.4395 2.6269 -7.1250 0.0000 -0.0000 -11.2926 40.4840 1.2759 -0.0000 0.0000 0.0000 86.5691 -16.7695 37.7699 -117.6872 56.8954 -83.7279 0.0000 -0.0000 -13.2683 -16.5507 22.8170 -6.5739 7.1250 -0.0000 -0.0000 7.7687 -6.4651 6.9100
-1.5853 16.4810 6.5847 12.1412 -45.9475 -4.6597 0.0000 0.0000 0.0000 -14.1312 -2.9945 -14.3982 17.2194 19.8136 81.8458 0.3187 -4.0465 12.9338 0.2314 -3.0961 -8.5464 0.0000 0.0000 0.0000 29.7195 4.9723 -22.2026 -5.3318 -13.7479 42.2370 -1.2307 -6.5541 -24.2686 -1.4498 -7.6112 21.5392 -1.6748 -0.1854 14.1511 1.7698 -0.3942 -0.1665 2.9251 -0.0898 -8.1143 -12.1736 -5.0792 -18.9459 5.0859 -4.6407 17.8266 3.1080 -2.4713 9.1474 0.0000 -0.0000 0.0000 -89.7950 22.2621 29.2255 115.3522 -57.4264 -81.7659 -0.0000 0.0000 -27.7470 13.7687 11.3813 2.7685 -7.1250 0.0000 -0.0000 -11.8823 41.3917 1.0744 0.0000 -0.0000 0.0000 86.1173 -16.1837 38.2518 -118.8731 56.6028 -84.7197 0.0000 -0.0000 -13.1282 -16.9234 22.9742 -6.7728 7.1250 -0.0000 -0.0000 7.5460 -6.2535 6.7392
-1.7974 16.4184 6.8765 11.7466 -45.8918 -4.4570 0.0000 0.0000 0.0000 -13.4098 -3.4349 -17.2827 17.8788 19.8918 83.7874 0.2109 -4.1163 11.1870 0.3616 -3.8629 -10.6912 0.0000 0.0000 0.0000 29.9455 4.4973 -21.1211 -5.4415 -13.8643 42.6967 -1.3197 -6.8266 -25.1420 -1.1142 -6.7059 18.8469 -1.4770 -0.0194 14.4732 1.8348 -0.1381 -0.1919 2.8339 0.0307 -8.3406 -12.0571 -5.2329 -19.0825 5.1255 -4.8790 17.9120 3.0679 -2.5695 9.2210 0.0000 -0.0000 0.0000 -89.7897 22.6681 29.3836 115.1829 -57.4626 -81.6233 -0.0000 0.0000 -26.8927 12.5946 12.4176 2.7506 -7.1250 0.0000 -0.0000 -13.1586 42.3139 0.8889 0.0000 -0.0000 0.0000 86.1377 -15.4169 38.2857 -119.8078 56.3609 -85.4989 0.0000 -0.0000 -12.6093 -16.7372 23.4684 -6.8293 7.1250 -0.0000 -0.0000 7.6946 -5.7769 6.9454
-2.0320 16.4028 7.1750 11.2654 -45.8252 -4.1787 0.0000 0.0000 0.0000 -12.6882 -3.9469 -19.9057 18.3356 19.9334 85.1284 0.1319 -4.1094 9.6095 0.4009 -4.0651 -11.2599 0.0000 0.0000 0.0000 30.1628 3.8718 -19.7323 -5.4755 -13.9001 42.8387 -1.4902 -6.2858 -26.0816 -1.1635 -6.8475 19.2642 -1.1621 0.1362 14.5759 1.9045 0.1259 -0.1493 2.6738 0.1460 -8.3677 -11.8839 -5.4048 -19.1462 4.9479 -5.1166 17.8483 2.9418 -2.6849 9.2224 0.0000 -0.0000 0.0000 -89.8998 22.9986 29.5209 115.2987 -57.4378 -81.7208 -0.0000 0.0000 -25.8123 11.8833 12.4237 2.5921 -7.1250 0.0000 -0.0000 -13.7823 42.2501 0.9549 0.0000 -0.0000 0.0000 86.1966 -14.5475 38.1718 -120.9554 56.0499 -86.4526 0.0000 -0.0000 -11.9850 -16.2476 23.6684 -6.6728 7.1250 -0.0000 -0.0000 8.0113 -5.6428 7.2577
